<svg width="25" height="14" viewBox="0 0 25 14" fill="none" xmlns="http://www.w3.org/2000/svg">
<g clip-path="url(#clip0_233_729)">
<path d="M18.5655 11.2473C18.5248 11.2066 18.4925 11.1584 18.4705 11.1053C18.4485 11.0522 18.4372 10.9952 18.4372 10.9377C18.4372 10.8802 18.4485 10.8233 18.4705 10.7702C18.4925 10.7171 18.5248 10.6688 18.5655 10.6282L21.7565 7.43774L1.18752 7.43774C1.07149 7.43774 0.960211 7.39165 0.878164 7.3096C0.796118 7.22756 0.750023 7.11627 0.750023 7.00024C0.750023 6.88421 0.796118 6.77293 0.878164 6.69088C0.960211 6.60884 1.07149 6.56274 1.18752 6.56274L21.7565 6.56274L18.5655 3.37227C18.4834 3.29018 18.4373 3.17884 18.4373 3.06274C18.4373 2.94665 18.4834 2.8353 18.5655 2.75321C18.6476 2.67112 18.7589 2.625 18.875 2.625C18.9911 2.625 19.1025 2.67112 19.1846 2.75321L23.1221 6.69071C23.1627 6.73134 23.195 6.7796 23.217 6.83271C23.239 6.88582 23.2504 6.94275 23.2504 7.00024C23.2504 7.05774 23.239 7.11467 23.217 7.16778C23.195 7.22089 23.1627 7.26914 23.1221 7.30977L19.1846 11.2473C19.1439 11.288 19.0957 11.3202 19.0426 11.3422C18.9894 11.3643 18.9325 11.3756 18.875 11.3756C18.8175 11.3756 18.7606 11.3643 18.7075 11.3422C18.6544 11.3202 18.6061 11.288 18.5655 11.2473Z" fill="white"/>
</g>
<defs>
<clipPath id="clip0_233_729">
<rect width="14" height="25" fill="white" transform="translate(25) rotate(90)"/>
</clipPath>
</defs>
</svg>
