<svg width="25" height="14" viewBox="0 0 25 14" fill="none" xmlns="http://www.w3.org/2000/svg">
<g clip-path="url(#clip0_233_731)">
<path d="M6.43454 2.75272C6.47522 2.79336 6.50749 2.84161 6.5295 2.89472C6.55152 2.94783 6.56285 3.00476 6.56285 3.06226C6.56285 3.11975 6.55152 3.17668 6.5295 3.22979C6.50749 3.28291 6.47522 3.33116 6.43454 3.37179L3.24352 6.56226L23.8125 6.56226C23.9285 6.56226 24.0398 6.60835 24.1219 6.6904C24.2039 6.77244 24.25 6.88372 24.25 6.99976C24.25 7.11579 24.2039 7.22707 24.1219 7.30911C24.0398 7.39116 23.9285 7.43726 23.8125 7.43726L3.24352 7.43726L6.43454 10.6277C6.51663 10.7098 6.56275 10.8212 6.56275 10.9373C6.56275 11.0534 6.51663 11.1647 6.43454 11.2468C6.35245 11.3289 6.2411 11.375 6.12501 11.375C6.00891 11.375 5.89757 11.3289 5.81548 11.2468L1.87798 7.30929C1.8373 7.26866 1.80503 7.2204 1.78301 7.16729C1.761 7.11418 1.74966 7.05725 1.74966 6.99976C1.74966 6.94226 1.761 6.88533 1.78301 6.83222C1.80503 6.77911 1.8373 6.73086 1.87798 6.69023L5.81548 2.75272C5.85611 2.71205 5.90436 2.67978 5.95747 2.65776C6.01058 2.63574 6.06751 2.62441 6.12501 2.62441C6.1825 2.62441 6.23943 2.63574 6.29254 2.65776C6.34566 2.67978 6.39391 2.71205 6.43454 2.75272Z" fill="white"/>
</g>
<defs>
<clipPath id="clip0_233_731">
<rect width="14" height="25" fill="white" transform="translate(0 14) rotate(-90)"/>
</clipPath>
</defs>
</svg>
